<?xml version="1.0" encoding="utf-8"?>
<!-- Generator: Adobe Illustrator 23.0.0, SVG Export Plug-In . SVG Version: 6.00 Build 0)  -->
<svg version="1.1" xmlns="http://www.w3.org/2000/svg" xmlns:xlink="http://www.w3.org/1999/xlink" x="0px" y="0px"
	 viewBox="0 0 1400 1400" style="enable-background:new 0 0 1400 1400;" xml:space="preserve">
<style type="text/css">
	.st0{fill:#5DC5C4;}
</style>
<g id="Layer_2">
</g>
<g id="Layer_1">
	<g>
		<path class="st0" d="M356.19,690.94l2.99-5.87c5.15,5.05,14.31,8.75,23.79,8.75c13.49,0,19.36-5.67,19.36-12.77
			c0-19.77-44.38-7.62-44.38-34.29c0-10.61,8.24-19.77,26.57-19.77c8.13,0,16.58,2.37,22.34,6.39l-2.57,6.07
			c-6.18-4.02-13.39-5.97-19.77-5.97c-13.18,0-19.05,5.87-19.05,13.08c0,19.77,44.38,7.82,44.38,34.08
			c0,10.6-8.44,19.67-26.88,19.67C372.15,700.31,361.54,696.51,356.19,690.94z"/>
		<path class="st0" d="M641.38,700.31l-16.48-23.17c-1.85,0.21-3.71,0.31-5.77,0.31h-19.36v22.86h-7.62v-72.08h26.98
			c18.33,0,29.45,9.27,29.45,24.71c0,11.33-5.97,19.26-16.48,22.65l17.61,24.72H641.38z M640.97,652.95
			c0-11.53-7.62-18.12-22.04-18.12h-19.15v36.14h19.15C633.35,670.97,640.97,664.27,640.97,652.95z"/>
		<path class="st0" d="M783.93,628.23l-31.92,72.08h-7.52l-31.92-72.08h8.24l27.6,62.61l27.81-62.61H783.93z"/>
		<path class="st0" d="M1015.47,700.31L999,677.14c-1.85,0.21-3.71,0.31-5.77,0.31h-19.36v22.86h-7.62v-72.08h26.98
			c18.33,0,29.45,9.27,29.45,24.71c0,11.33-5.97,19.26-16.48,22.65l17.61,24.72H1015.47z M1015.06,652.95
			c0-11.53-7.62-18.12-22.04-18.12h-19.15v36.14h19.15C1007.44,670.97,1015.06,664.27,1015.06,652.95z"/>
		<g>
			<rect x="472.68" y="627" class="st0" width="56.62" height="7.88"/>
			<rect x="472.68" y="659.72" class="st0" width="56.62" height="7.88"/>
			<rect x="472.68" y="692.44" class="st0" width="56.62" height="7.88"/>
		</g>
		<g>
			<rect x="846.78" y="627" class="st0" width="56.62" height="7.88"/>
			<rect x="846.78" y="659.72" class="st0" width="56.62" height="7.88"/>
			<rect x="846.78" y="692.44" class="st0" width="56.62" height="7.88"/>
		</g>
	</g>
</g>
</svg>
